<svg fill="#c1c1c1" xmlns="http://www.w3.org/2000/svg" xmlns:xlink="http://www.w3.org/1999/xlink" version="1.1" x="0px" y="0px" viewBox="0 0 100 100" style="enable-background:new 0 0 100 100;" xml:space="preserve"><g><path d="M93.6,6H5.8v87.8h87.8V6z M92.2,92.5H7.1V79.6l34.5-34.5l22.2,22.2l7.9-7.9l20.5,20.5V92.5z M92.2,77.9L71.7,57.4l-7.9,7.9   L41.7,43.2L7.1,77.7V7.4h85.1V77.9z"></path><path d="M75.6,32.2c4.2,0,7.5-3.4,7.5-7.5s-3.4-7.5-7.5-7.5s-7.5,3.4-7.5,7.5S71.5,32.2,75.6,32.2z M75.6,18.5   c3.4,0,6.2,2.8,6.2,6.2c0,3.4-2.8,6.2-6.2,6.2s-6.2-2.8-6.2-6.2C69.5,21.3,72.2,18.5,75.6,18.5z"></path></g></svg>