<?xml version="1.0" encoding="utf-8"?>
<!-- Generator: Adobe Illustrator 21.0.0, SVG Export Plug-In . SVG Version: 6.00 Build 0)  -->
<svg version="1.1" id="Слой_1" xmlns="http://www.w3.org/2000/svg" xmlns:xlink="http://www.w3.org/1999/xlink" x="0px" y="0px"
	 viewBox="0 0 255.6 101.3" style="enable-background:new 0 0 255.6 101.3;" xml:space="preserve">
<style type="text/css">
	.st0{fill:#444444;}
</style>
<g id="Layer_2">
</g>
<g id="Layer_1">
	<g>
		<path class="st0" d="M22.6,29.4h7.6v35.8h-6.4L7.6,42.9v22.3H0V29.4h7l15.7,21.8L22.6,29.4L22.6,29.4z"/>
		<path class="st0" d="M64.2,51.3c0,0.7,0,1.5-0.1,2.2H43.2c0.3,1.9,1.1,3.3,2.3,4.3s2.7,1.5,4.5,1.5c1.3,0,2.4-0.3,3.5-0.8
			c1-0.6,1.8-1.3,2.4-2.3h7.8c-1,3-2.7,5.4-5.2,7.2c-2.5,1.8-5.3,2.7-8.5,2.7c-2.7,0-5.1-0.6-7.3-1.9c-2.2-1.3-3.9-3-5.1-5.2
			c-1.2-2.2-1.9-4.7-1.9-7.4s0.6-5.2,1.9-7.4c1.2-2.2,3-4,5.1-5.2c2.2-1.3,4.6-1.9,7.3-1.9c2.8,0,5.2,0.7,7.4,2s3.9,3.1,5.1,5.2
			C63.6,46.2,64.2,48.6,64.2,51.3z M50,43.2c-1.6,0-3,0.5-4.2,1.4c-1.1,0.9-1.9,2.2-2.4,3.8h13.4c-0.5-1.7-1.4-3-2.5-3.9
			S51.7,43.2,50,43.2z"/>
		<path class="st0" d="M82.1,65.9c-3.9,0-7-1.1-9.4-3.4c-2.4-2.3-3.6-5.3-3.6-9V37.6h7.5v15.1c0,2,0.5,3.5,1.5,4.6s2.3,1.7,4.1,1.7
			s3.1-0.6,4-1.7c1-1.1,1.4-2.6,1.4-4.6V37.6h7.5v15.9c0,3.7-1.2,6.7-3.5,9C89.2,64.8,86,65.9,82.1,65.9z"/>
		<path class="st0" d="M115.9,37.4h2.4v7h-3.2c-2.1,0-3.6,0.5-4.5,1.5s-1.4,2.6-1.4,4.9v14.3h-7.5V37.6h4.8l1.3,3.4
			C109.8,38.6,112.5,37.4,115.9,37.4z"/>
		<path class="st0" d="M135.1,65.9c-2.8,0-5.4-0.6-7.6-1.9c-2.3-1.3-4.1-3-5.3-5.2c-1.3-2.2-1.9-4.7-1.9-7.4c0-2.8,0.6-5.2,1.9-7.5
			c1.3-2.2,3.1-4,5.3-5.2c2.3-1.3,4.8-1.9,7.6-1.9c2.8,0,5.3,0.6,7.6,1.9c2.3,1.3,4.1,3,5.4,5.2s1.9,4.7,1.9,7.5
			c0,2.7-0.6,5.2-1.9,7.4s-3.1,4-5.4,5.2C140.4,65.3,137.9,65.9,135.1,65.9z M129.8,56.8c1.4,1.4,3.1,2.1,5.3,2.1
			c2.1,0,3.9-0.7,5.3-2.1s2.1-3.2,2.1-5.4s-0.7-4-2.1-5.4s-3.1-2.1-5.3-2.1c-2.1,0-3.9,0.7-5.3,2.1c-1.4,1.4-2.1,3.2-2.1,5.4
			S128.4,55.4,129.8,56.8z"/>
		<path class="st0" d="M180,48.9v16.3h-1.6v-16c0-6.6-3.6-10.5-9.5-10.5c-5.6,0-10.4,4.8-10.4,10.5v16.1h-1.7V27.9h1.6v16
			c1.9-4,6.1-6.8,10.8-6.8C175.8,37.1,180,41.6,180,48.9z"/>
		<path class="st0" d="M189.1,28.6h2.4v2.8h-2.4V28.6z M189.5,37.6h1.6v27.6h-1.6V37.6z"/>
		<path class="st0" d="M223.6,37.6l-12.3,27.6h-1.4l-12.5-27.6h1.7l11.5,25.3l11.3-25.3H223.6z"/>
		<path class="st0" d="M254.3,51.9h-25.7c0.2,7.1,5.4,12.2,12.2,12.2c4.9,0,8.7-2.5,11-6.8h1.7c-2.6,5.5-7,8.4-12.7,8.4
			c-7.9,0-13.8-6.2-13.8-14.4c0-8.1,6-14.3,13.8-14.3c7.9,0,13.6,6.2,13.6,14.1C254.3,51.4,254.3,51.7,254.3,51.9z M240.7,38.6
			c-6.7,0-11.7,4.9-12.2,11.7h24.1C252.3,43.4,247.2,38.6,240.7,38.6L240.7,38.6z"/>
	</g>
</g>
</svg>
