<?xml version="1.0" encoding="utf-8"?>
<!-- Generator: Adobe Illustrator 21.0.0, SVG Export Plug-In . SVG Version: 6.00 Build 0)  -->
<svg version="1.1" id="Capa_1" xmlns="http://www.w3.org/2000/svg" xmlns:xlink="http://www.w3.org/1999/xlink" x="0px" y="0px"
	 viewBox="0 0 512 512" style="enable-background:new 0 0 512 512;" xml:space="preserve">
<style type="text/css">
	.st0{fill:#933EC5;}
</style>
<g>
	<g>
		<path class="st0" d="M256,503C119.8,503,9,392.2,9,256S119.8,9,256,9s247,110.8,247,247C503,392.2,392.2,503,256,503z M256,37.2
			C135.4,37.2,37.2,135.4,37.2,256S135.4,474.8,256,474.8S474.8,376.6,474.8,256S376.6,37.2,256,37.2z"/>
	</g>
	<g>
		<path class="st0" d="M353.4,270.1H158.6c-7.8,0-14.1-6.3-14.1-14.1c0-7.8,6.3-14.1,14.1-14.1h194.8c7.8,0,14.1,6.3,14.1,14.1
			C367.5,263.8,361.2,270.1,353.4,270.1z"/>
	</g>
</g>
</svg>