<?xml version="1.0" encoding="utf-8"?>
<!-- Generator: Adobe Illustrator 21.0.0, SVG Export Plug-In . SVG Version: 6.00 Build 0)  -->
<svg version="1.1" id="Layer_1" xmlns="http://www.w3.org/2000/svg" xmlns:xlink="http://www.w3.org/1999/xlink" x="0px" y="0px"
	 viewBox="0 0 200 200" style="enable-background:new 0 0 200 200;" xml:space="preserve">
<style type="text/css">
	.st0{fill:#DDDBFE;stroke:#DDDBFE;stroke-width:5;stroke-miterlimit:10;}
	.st1{fill:none;stroke:#DDDBFE;stroke-width:5;stroke-miterlimit:10;}
</style>
<g>
	<g>
		<path class="st0" d="M121.1,89.4c-2.1,0-4.2,0.5-5.9,1.3L95.2,73.4c0.8-1.5,1.3-3.1,1.3-5c0-5.6-4.6-10.3-10.3-10.3
			c-0.5,0-0.9,0-1.3,0.1c-1.2,0.2-2,1.2-1.9,2.4s1.2,2,2.4,1.9c0.3,0,0.6-0.1,0.7-0.1c3.3,0,6,2.7,6,6c0,3.3-2.7,6-6,6
			c-3.3,0-6-2.7-6-6c0-0.7,0.2-1.6,0.5-2.2c0.5-1.1-0.1-2.3-1.2-2.8s-2.4,0.1-2.8,1.2c-0.5,1.2-0.7,2.5-0.7,3.9
			c0,5.7,4.6,10.3,10.3,10.3c2.3,0,4.4-0.7,6.2-2l19,16.5c-2.9,2.6-4.7,6.4-4.7,10.7c0,2.7,0.7,5.3,2.1,7.4L87,120.5
			c-1.8-3.1-5.1-5.1-8.9-5.1c-5.7,0-10.4,4.6-10.4,10.3c0,5.7,4.6,10.4,10.4,10.4c5.6,0,10.3-4.6,10.3-10.4c0-0.4,0-0.7-0.1-1.1
			l23.3-9.8c2.5,2.2,5.8,3.5,9.4,3.5c8,0,14.4-6.5,14.4-14.4C135.4,95.8,129,89.4,121.1,89.4z M78,131.7c-3.3,0-6-2.7-6-6s2.7-6,6-6
			c3.3,0,6,2.7,6,6S81.3,131.7,78,131.7z M121.1,113.9c-5.6,0-10.1-4.5-10.1-10.1c0-5.6,4.5-10.1,10.1-10.1s10.1,4.5,10.1,10.1
			C131.1,109.4,126.6,113.9,121.1,113.9z"/>
	</g>
</g>
<circle class="st1" cx="100" cy="100" r="96"/>
</svg>
